<svg width="92" height="92" viewBox="0 0 92 92" fill="none" xmlns="http://www.w3.org/2000/svg">
<g filter="url(#filter0_d_121_54060)">
<rect x="11" y="7" width="70" height="70" rx="15" fill="#3056D3"/>
</g>
<path d="M45.5 52.875C36.2031 52.875 28.6562 61.0781 28.6562 71.1406C28.6562 71.6875 29.0937 72.125 29.6406 72.125H61.3594C61.9062 72.125 62.3437 71.6875 62.3437 71.1406C62.3437 61.0781 54.7969 52.875 45.5 52.875ZM47.4687 70.2109L45.9922 65.5078C45.8281 65.0156 45.1719 65.0156 45.0078 65.5078L43.5312 70.2109H30.625C31.0625 61.625 37.5703 54.7891 45.5 54.7891C53.4297 54.7891 59.9375 61.625 60.375 70.2109H47.4687V70.2109Z" fill="white"/>
<path d="M45.5 58.7812C44.9531 58.7812 44.5156 59.2187 44.5156 59.7656V61.1875C44.5156 61.7344 44.9531 62.1719 45.5 62.1719C46.0469 62.1719 46.4844 61.7344 46.4844 61.1875V59.7656C46.4844 59.2187 46.0469 58.7812 45.5 58.7812Z" fill="white"/>
<path d="M53.8672 62.8828L52.9922 63.8125C52.6094 64.1953 52.6094 64.7969 52.9922 65.1797C53.1563 65.3438 53.4297 65.4531 53.6484 65.4531C53.9219 65.4531 54.1406 65.3438 54.3594 65.1797L55.2344 64.25C55.6172 63.8672 55.6172 63.2656 55.2344 62.8828C54.8516 62.5 54.25 62.5 53.8672 62.8828Z" fill="white"/>
<path d="M37.1328 62.8828C36.8047 62.5 36.1484 62.4453 35.7656 62.8281C35.3828 63.1562 35.3281 63.8125 35.7109 64.1953L36.5312 65.125C36.6953 65.3437 36.9687 65.4531 37.2422 65.4531C37.4609 65.4531 37.6797 65.3984 37.8984 65.2344C38.2812 64.9062 38.3359 64.25 37.9531 63.8672L37.1328 62.8828Z" fill="white"/>
<defs>
<filter id="filter0_d_121_54060" x="0" y="0" width="92" height="92" filterUnits="userSpaceOnUse" color-interpolation-filters="sRGB">
<feFlood flood-opacity="0" result="BackgroundImageFix"/>
<feColorMatrix in="SourceAlpha" type="matrix" values="0 0 0 0 0 0 0 0 0 0 0 0 0 0 0 0 0 0 127 0" result="hardAlpha"/>
<feOffset dy="4"/>
<feGaussianBlur stdDeviation="5.5"/>
<feColorMatrix type="matrix" values="0 0 0 0 0 0 0 0 0 0 0 0 0 0 0 0 0 0 0.06 0"/>
<feBlend mode="normal" in2="BackgroundImageFix" result="effect1_dropShadow_121_54060"/>
<feBlend mode="normal" in="SourceGraphic" in2="effect1_dropShadow_121_54060" result="shape"/>
</filter>
</defs>
</svg>
